<?xml version="1.0" standalone="no"?>
<!DOCTYPE svg PUBLIC "-//W3C//DTD SVG 20010904//EN"
 "http://www.w3.org/TR/2001/REC-SVG-20010904/DTD/svg10.dtd">
<svg version="1.0" xmlns="http://www.w3.org/2000/svg"
 width="680.000000pt" height="680.000000pt" viewBox="0 0 680.000000 680.000000"
 preserveAspectRatio="xMidYMid meet">
<metadata>
Created by potrace 1.14, written by Peter Selinger 2001-2017
</metadata>
<g transform="translate(0.000000,680.000000) scale(0.100000,-0.100000)"
fill="#000000" stroke="none">
<path d="M3301 6348 c-20 -10 -48 -28 -62 -41 -23 -19 -127 -187 -190 -305 -9
-18 -22 -38 -27 -45 -5 -7 -22 -34 -36 -62 -28 -52 -31 -57 -83 -142 -18 -30
-33 -56 -33 -58 0 -3 -18 -35 -40 -71 -22 -36 -40 -68 -40 -70 0 -3 -12 -23
-27 -47 -15 -23 -28 -44 -28 -47 -1 -5 -99 -176 -131 -227 -8 -12 -22 -37 -33
-57 -11 -19 -79 -137 -152 -263 -72 -125 -139 -241 -149 -258 -9 -16 -52 -91
-95 -165 -43 -74 -96 -166 -118 -205 -22 -38 -46 -78 -55 -87 -8 -10 -12 -18
-8 -18 4 0 -5 -17 -19 -37 -14 -21 -25 -43 -25 -50 0 -7 -4 -13 -10 -13 -5 0
-10 -4 -10 -10 0 -5 -16 -34 -35 -64 -19 -30 -35 -58 -35 -61 0 -3 -27 -50
-60 -105 -33 -55 -60 -104 -60 -110 0 -5 -3 -10 -7 -10 -5 0 -13 -10 -19 -23
-18 -38 -76 -141 -95 -169 -11 -14 -19 -31 -19 -37 0 -6 -4 -11 -10 -11 -5 0
-10 -9 -10 -19 0 -11 -4 -21 -8 -23 -7 -3 -81 -128 -91 -153 -2 -5 -9 -17 -16
-25 -7 -8 -26 -40 -42 -70 -17 -30 -56 -100 -88 -155 -101 -175 -372 -644
-480 -830 -16 -29 -42 -74 -57 -100 -16 -26 -28 -51 -28 -56 0 -5 -5 -9 -11
-9 -5 0 -7 -5 -4 -10 3 -6 2 -10 -2 -10 -5 0 -20 -22 -34 -50 -13 -27 -27 -50
-31 -50 -5 0 -8 -5 -8 -11 0 -6 -15 -37 -34 -68 -19 -31 -43 -72 -54 -91 -37
-66 -129 -225 -222 -385 -51 -88 -106 -185 -123 -215 -17 -30 -34 -57 -37 -60
-3 -3 -11 -16 -17 -30 -7 -14 -27 -50 -45 -82 -84 -143 -124 -215 -133 -238
-18 -41 -18 -98 0 -153 19 -59 52 -101 110 -137 l40 -25 3235 0 3235 0 40 26
c117 77 156 204 98 317 -31 60 -75 136 -88 152 -6 8 -17 30 -25 48 -7 17 -16
32 -20 32 -4 0 -10 8 -13 18 -6 17 -33 65 -114 203 -24 39 -43 76 -43 80 0 5
-4 9 -8 9 -4 0 -13 12 -19 28 -7 15 -22 45 -35 67 -13 22 -37 63 -52 90 -16
28 -35 57 -42 65 -7 8 -12 17 -12 20 2 8 -63 120 -73 126 -5 3 -7 10 -4 15 4
5 1 9 -4 9 -6 0 -11 4 -11 9 0 12 -83 155 -92 159 -5 2 -8 7 -8 12 0 5 -23 48
-51 97 -29 48 -63 108 -77 133 -14 25 -32 57 -41 72 -49 82 -71 121 -71 129 0
5 -4 9 -10 9 -5 0 -9 3 -8 8 1 4 -5 18 -14 32 -9 14 -51 86 -93 160 -86 150
-83 145 -185 320 -40 69 -95 166 -123 215 -28 50 -54 92 -59 93 -4 2 -8 8 -8
14 0 5 -31 63 -70 129 -38 66 -70 124 -70 129 0 4 -3 10 -7 12 -5 2 -19 23
-32 48 -14 25 -27 47 -30 50 -3 3 -16 25 -29 50 -24 48 -44 82 -52 90 -6 6
-50 86 -65 117 -5 13 -13 23 -17 23 -5 0 -8 5 -8 11 0 6 -23 49 -51 97 -29 48
-63 107 -77 132 -14 25 -36 62 -49 82 -12 21 -23 39 -23 42 0 3 -44 80 -90
156 -5 8 -37 64 -72 124 -35 60 -75 130 -90 155 -15 25 -30 53 -34 61 -5 8
-27 48 -51 88 -24 40 -43 77 -43 82 0 6 -4 10 -10 10 -5 0 -10 4 -10 10 0 5
-14 33 -31 62 -18 29 -40 68 -50 86 -11 17 -27 47 -38 65 -10 17 -32 56 -50
85 -17 29 -31 57 -31 62 0 6 -4 10 -9 10 -5 0 -11 8 -14 18 -9 27 -78 146 -89
153 -5 3 -10 12 -12 20 -1 8 -9 25 -18 39 -13 21 -263 453 -336 580 -92 162
-116 199 -144 228 -32 33 -88 69 -88 56 0 -4 -6 -1 -14 5 -21 17 -122 11 -165
-11z"/>
</g>
</svg>
